<svg width="40" height="40" viewBox="0 0 40 40" fill="none" xmlns="http://www.w3.org/2000/svg">
<circle cx="20" cy="20" r="20" fill="black"/>
<path fill-rule="evenodd" clip-rule="evenodd" d="M26.668 18.4648C26.1169 18.4648 25.668 18.9184 25.668 19.4827C25.668 20.047 26.1132 20.5006 26.668 20.5006C27.2227 20.5006 27.6716 20.0398 27.6679 19.4827C27.6679 18.9184 27.2227 18.4648 26.668 18.4648Z" fill="white"/>
<path fill-rule="evenodd" clip-rule="evenodd" d="M21.332 18.4648C20.7789 18.4648 20.332 18.9188 20.332 19.4827C20.332 20.0466 20.7789 20.5006 21.332 20.5006C21.8851 20.5006 22.332 20.0395 22.332 19.4827C22.332 18.9259 21.8851 18.4648 21.332 18.4648Z" fill="white"/>
<path fill-rule="evenodd" clip-rule="evenodd" d="M13.6666 18.4648C13.3011 18.4648 13 18.9184 13 19.4827C13 20.047 13.2987 20.5006 13.6666 20.5006C14.0346 20.5006 14.3381 20.0398 14.3333 19.4827C14.3333 18.9184 14.0346 18.4648 13.6666 18.4648Z" fill="white"/>
<path fill-rule="evenodd" clip-rule="evenodd" d="M31 23.1018V14.5884C31 12.6058 29.4429 11 27.5257 11H12.4743C10.5571 11 9 12.6058 9 14.5884V23.1018C9 25.0845 10.551 26.6903 12.4743 26.6903H17.6843L19.4322 29.6073C19.4322 29.6073 19.4538 29.6453 19.4876 29.6928C19.5923 29.8733 19.783 30 20.0046 30C20.2262 30 20.4139 29.8765 20.5216 29.6959C20.5678 29.6421 20.5832 29.6073 20.5832 29.6073L22.3188 26.6903H27.5257C29.4429 26.6903 31 25.0845 31 23.1018ZM13.9238 21.4802C13.1175 21.4802 12.8005 20.8753 12.8005 20.8753V21.3314H11.4434V15.4721H12.7821V17.705C13.3237 17.1539 13.9207 17.1539 13.9207 17.1539C15.7394 17.1539 15.8071 19.2949 15.8071 19.2949C15.8071 21.4074 13.9207 21.4834 13.9207 21.4834L13.9238 21.4802ZM18.112 21.2332H16.8134V17.8981C16.8134 16.7516 16.1979 16.777 16.1979 16.777V15.4721C18.1644 15.4721 18.109 17.5878 18.1151 17.5878V21.23L18.112 21.2332ZM23.559 19.3361C23.559 21.4897 21.3463 21.4961 21.3463 21.4961C19.1153 21.4961 19.183 19.3361 19.183 19.3361C19.183 17.1475 21.3463 17.1475 21.3463 17.1475C23.6297 17.1475 23.559 19.3361 23.559 19.3361ZM28.5812 21.2649C28.5812 23.4882 26.6609 23.4692 26.6609 23.4692H26.1501V22.2214H26.4671C27.3933 22.2214 27.3041 21.1889 27.3041 21.1889V20.8595C26.8979 21.4296 26.1532 21.3979 26.1532 21.3979C24.3252 21.3979 24.3437 19.3076 24.3437 19.3076C24.3437 17.062 26.2024 17.1475 26.2024 17.1475C26.9287 17.1475 27.3041 17.6859 27.3041 17.6859V17.2869H28.5812V21.2649Z" fill="white"/>
</svg>
