<svg width="164" height="56" viewBox="0 0 164 56" fill="none" xmlns="http://www.w3.org/2000/svg">
<rect x="22.4062" y="1.01172" width="26.0897" height="53.5723" fill="white"/>
<path d="M110.095 24.1904L105.668 49.6915C105.668 49.6915 104.705 53.5218 104 54.6866H108.8L111.763 38.6177L119.053 55.1904L126.111 38.4606L129.747 54.7407H135C135 54.7407 134.158 53.9931 132.611 49.8865L127.605 24.2283L118.968 45.2056L110.089 24.1958L110.095 24.1904Z" fill="white"/>
<path d="M57.4598 26.2064V35.2003L68.0254 26.2064H74L59.6748 38.9269L74 54.1424H68.2184L57.4705 42.8934V54.1904H52.8635V33.345C52.8635 33.345 52.606 27.8964 52 26.1904L57.4598 26.2011V26.2064Z" fill="white"/>
<path d="M73 40.6904C73 32.68 79.4896 26.1904 87.5 26.1904C95.5104 26.1904 101.995 32.68 102 40.6904C102 48.7008 95.5104 55.1904 87.5 55.1904C79.4896 55.1904 73 48.7008 73 40.6904ZM77 40.6904C77.0104 46.4873 81.7031 51.18 87.5 51.1904C93.2969 51.18 97.9844 46.4873 98 40.6904C97.9896 34.8935 93.2969 30.2008 87.5 30.1904C81.7031 30.2008 77.0104 34.8935 77 40.6904Z" fill="white"/>
<path d="M135 40.6904C135 32.68 141.49 26.1904 149.5 26.1904C157.51 26.1904 163.995 32.68 164 40.6904C164 48.7008 157.51 55.1904 149.5 55.1904C141.49 55.1904 135 48.7008 135 40.6904ZM139 40.6904C139.01 46.4873 143.703 51.18 149.5 51.1904C155.297 51.18 159.984 46.4873 160 40.6904C159.99 34.8935 155.297 30.2008 149.5 30.1904C143.703 30.2008 139.01 34.8935 139 40.6904Z" fill="white"/>
<path d="M13.1982 48.2295V32.4489C13.1982 32.4489 13.0093 28.2864 12.432 27.1904L18 27.2009V48.2453C18 48.2453 18.0682 52.197 13.1982 54.2045C13.1982 54.2045 5.6099 57.7453 0 51.4067L4.41865 48.4402C4.41865 48.4402 6.02972 50.8165 7.97665 50.8376C7.97665 50.8376 12.2903 51.0747 13.1982 48.24V48.2295Z" fill="white"/>
<path d="M27.2344 54.5842H43.7356L35.2343 34.3574L27.2344 54.5842Z" fill="#ABA434"/>
<path d="M22.4062 1.01172V54.584L35.3773 24.7214L48.4959 54.584V1.01172H22.4062Z" fill="#ABA434"/>
</svg>
