<svg width="40" height="40" viewBox="0 0 40 40" fill="none" xmlns="http://www.w3.org/2000/svg">
<circle cx="20" cy="20" r="20" fill="black"/>
<path d="M29.5856 15.1868C29.3559 14.3272 28.6782 13.6496 27.8185 13.4172C26.2588 13 20.0028 13 20.0028 13C20.0028 13 13.7468 13 12.1871 13.4172C11.3274 13.6468 10.6497 14.3244 10.4201 15.1868C10 16.7464 10 20 10 20C10 20 10 23.2536 10.4173 24.8132C10.6469 25.6728 11.3246 26.3504 12.1843 26.5828C13.744 27 20 27 20 27C20 27 26.256 27 27.8157 26.5828C28.6754 26.3532 29.3531 25.6756 29.5828 24.8132C30 23.2536 30 20 30 20C30 20 30 16.7464 29.5828 15.1868H29.5856ZM18.0006 22.9988V17.0012L23.198 20L18.0006 22.9988Z" fill="white"/>
</svg>
