<svg width="40" height="40" viewBox="0 0 40 40" fill="none" xmlns="http://www.w3.org/2000/svg">
<circle cx="20" cy="20" r="20" fill="black"/>
<path d="M20.4974 13.5348C22.7668 13.5348 23.0361 13.5426 23.9303 13.5844C24.7592 13.621 25.2089 13.7596 25.5069 13.8773C25.9043 14.0315 26.1867 14.2145 26.4848 14.5126C26.7828 14.8107 26.9659 15.093 27.1201 15.4905C27.2378 15.7911 27.3737 16.2408 27.413 17.0671C27.4548 17.9639 27.4626 18.2305 27.4626 20.5C27.4626 22.7695 27.4548 23.0388 27.413 23.9329C27.3763 24.7618 27.2378 25.2115 27.1201 25.5095C26.9659 25.907 26.7828 26.1893 26.4848 26.4874C26.1867 26.7855 25.9043 26.9685 25.5069 27.1227C25.2062 27.2404 24.7565 27.3763 23.9303 27.4156C23.0335 27.4574 22.7668 27.4652 20.4974 27.4652C18.2279 27.4652 17.9586 27.4574 17.0644 27.4156C16.2356 27.379 15.7859 27.2404 15.4879 27.1227C15.0904 26.9685 14.8081 26.7855 14.51 26.4874C14.2119 26.1893 14.0289 25.907 13.8747 25.5095C13.757 25.2089 13.621 24.7592 13.5818 23.9329C13.54 23.0361 13.5321 22.7695 13.5321 20.5C13.5321 18.2305 13.54 17.9612 13.5818 17.0671C13.6184 16.2382 13.757 15.7885 13.8747 15.4905C14.0289 15.093 14.2119 14.8107 14.51 14.5126C14.8081 14.2145 15.0904 14.0315 15.4879 13.8773C15.7885 13.7596 16.2382 13.6237 17.0644 13.5844C17.9612 13.5426 18.2279 13.5348 20.4974 13.5348ZM20.4974 12.0026C18.1887 12.0026 17.9011 12.0131 16.9938 12.0549C16.0892 12.0967 15.4722 12.2405 14.9309 12.4497C14.3714 12.6667 13.8982 12.9569 13.4249 13.4302C12.9517 13.9034 12.6615 14.3767 12.4445 14.9362C12.2353 15.4748 12.0915 16.0918 12.0523 16.9965C12.0105 17.9037 12 18.1913 12 20.5C12 22.8087 12.0105 23.0963 12.0523 24.0035C12.0941 24.9082 12.2379 25.5252 12.4471 26.0664C12.6641 26.626 12.9543 27.0992 13.4276 27.5724C13.9008 28.0457 14.374 28.3359 14.9336 28.5529C15.4748 28.7621 16.0918 28.9059 16.9965 28.9477C17.9037 28.9895 18.1913 29 20.5 29C22.8087 29 23.0963 28.9895 24.0035 28.9477C24.9082 28.9059 25.5252 28.7621 26.0664 28.5529C26.626 28.3359 27.0992 28.0457 27.5724 27.5724C28.0457 27.0992 28.3359 26.626 28.5529 26.0664C28.7621 25.5252 28.9059 24.9082 28.9477 24.0035C28.9895 23.0963 29 22.8087 29 20.5C29 18.1913 28.9895 17.9037 28.9477 16.9965C28.9059 16.0918 28.7621 15.4748 28.5529 14.9336C28.3359 14.374 28.0457 13.9008 27.5724 13.4276C27.0992 12.9543 26.626 12.6641 26.0664 12.4471C25.5252 12.2379 24.9082 12.0941 24.0035 12.0523C23.0963 12.0105 22.8087 12 20.5 12L20.4974 12.0026Z" fill="white"/>
<path d="M20.4941 16.1362C18.0835 16.1362 16.1304 18.0893 16.1304 20.5C16.1304 22.9106 18.0835 24.8637 20.4941 24.8637C22.9047 24.8637 24.8578 22.9106 24.8578 20.5C24.8578 18.0893 22.9047 16.1362 20.4941 16.1362ZM20.4941 23.3316C18.9306 23.3316 17.6625 22.0635 17.6625 20.5C17.6625 18.9364 18.9306 17.6684 20.4941 17.6684C22.0576 17.6684 23.3257 18.9364 23.3257 20.5C23.3257 22.0635 22.0576 23.3316 20.4941 23.3316Z" fill="white"/>
<path d="M25.0319 16.9827C25.595 16.9827 26.0516 16.5262 26.0516 15.963C26.0516 15.3999 25.595 14.9434 25.0319 14.9434C24.4687 14.9434 24.0122 15.3999 24.0122 15.963C24.0122 16.5262 24.4687 16.9827 25.0319 16.9827Z" fill="white"/>
</svg>
