<svg id="Graphic_Elements" data-name="Graphic Elements" xmlns="http://www.w3.org/2000/svg" width="55" height="55" viewBox="0 0 55 55">
  <g id="그룹_49" data-name="그룹 49">
    <rect id="사각형_33" data-name="사각형 33" width="55" height="55" rx="21.42" fill="#8f9299"/>
    <g id="그룹_48" data-name="그룹 48">
      <path id="패스_95" data-name="패스 95" d="M23.68,24.16l-.75,2.13c-.04.12-.02.15.1.14h1.83c-.33-.93-.65-1.84-.99-2.8-.07.21-.13.37-.19.53Z" fill="#fff"/>
      <path id="패스_96" data-name="패스 96" d="M43.7,20.8a13.059,13.059,0,0,0-4.46-5.44,19.077,19.077,0,0,0-9.85-3.59,21.43,21.43,0,0,0-5.71.25,18.969,18.969,0,0,0-7.08,2.74,14.206,14.206,0,0,0-4.88,5.13,10.77,10.77,0,0,0-1.24,6.99,11.578,11.578,0,0,0,2.66,5.72,15.769,15.769,0,0,0,5.09,3.97.18.18,0,0,1,.11.25c-.41,1.43-.82,2.87-1.23,4.3-.16.57-.33,1.13-.46,1.71-.07.33.12.52.46.48a.761.761,0,0,0,.3-.1c.26-.15.52-.29.77-.45,2.07-1.31,4.08-2.72,6.09-4.13a.542.542,0,0,1,.41-.1,22.031,22.031,0,0,0,6.39-.11,19.412,19.412,0,0,0,6.56-2.32,14.523,14.523,0,0,0,5.26-4.95,10.8,10.8,0,0,0,.82-10.36ZM19.01,23.27v5.61a.957.957,0,0,1-.68.99.978.978,0,0,1-1.3-.94V23.29c0-.15-.03-.2-.19-.2-.44.01-.88,0-1.32,0a.95.95,0,0,1-1-.95.968.968,0,0,1,1-.98h5.01a.965.965,0,0,1,.99.86.98.98,0,0,1-.72,1.05,1.021,1.021,0,0,1-.3.03H19.18c-.14,0-.17.04-.17.18Zm8.67,5.95a.635.635,0,0,1-.43.58,1.47,1.47,0,0,1-.62.1.8.8,0,0,1-.82-.59c-.1-.33-.25-.65-.37-.98a.189.189,0,0,0-.21-.15H22.51a.174.174,0,0,0-.19.13c-.12.32-.24.64-.37.97a.884.884,0,0,1-1.07.62c-.69-.1-.93-.45-.78-1.16a8.3,8.3,0,0,1,.44-1.27q1.005-2.655,2.01-5.29a1.445,1.445,0,0,1,1.11-.97,1.4,1.4,0,0,1,1.52.92c.37.96.74,1.93,1.1,2.9.41,1.09.83,2.17,1.24,3.26a2.17,2.17,0,0,1,.16.94Zm4.72.55c-1.11.01-2.23.01-3.34,0a.891.891,0,0,1-.86-.91v-6.7a.99.99,0,0,1,.91-.99,1.019,1.019,0,0,1,1.08.74,1.5,1.5,0,0,1,.03.37v5.5c0,.16.04.19.19.19h1.93a.9.9,0,0,1,.07,1.8Zm7.34-.14a.986.986,0,0,1-1.46-.15c-.69-.9-1.37-1.81-2.06-2.72-.02-.02-.03-.05-.05-.07-.08-.08-.1-.23-.23-.24-.1,0-.32.34-.32.46v2.04a.963.963,0,0,1-.82.94.988.988,0,0,1-1.07-.57,1.07,1.07,0,0,1-.09-.43V22.16a.985.985,0,1,1,1.97,0v2.07a.592.592,0,0,0,.06.04c.04-.05.07-.11.11-.16.84-.85,1.69-1.69,2.54-2.54a.843.843,0,0,1,1.09-.14.951.951,0,0,1,.45,1.07.872.872,0,0,1-.25.38c-.69.69-1.38,1.39-2.08,2.07-.1.1-.09.15-.01.25l2.31,3.06a.98.98,0,0,1-.1,1.36Z" fill="#fff"/>
    </g>
  </g>
</svg>
