<svg xmlns="http://www.w3.org/2000/svg" width="54.337" height="50" viewBox="0 0 54.337 50">
  <g id="그룹_3" data-name="그룹 3" transform="translate(-2074.765 -1365.609)">
    <path id="패스_8" data-name="패스 8" d="M2090.965,1403.1a1.858,1.858,0,0,1-1.858-1.858l-4.311-31.919h-10.031v-3.715h11.95a1.859,1.859,0,0,1,1.858,1.857l1.018,7.132h37.653a1.859,1.859,0,0,1,1.858,1.858,1.831,1.831,0,0,1-.057.454l-3.334,24.844a1.845,1.845,0,0,1-1.79,1.347Zm1.919-3.716h29.124l2.761-21.071h-34.647Z" fill="#111"/>
    <g id="그룹_7" data-name="그룹 7">
      <circle id="타원_1" data-name="타원 1" cx="3.6" cy="3.6" r="3.6" transform="translate(2092.936 1408.409)" fill="#111"/>
      <circle id="타원_2" data-name="타원 2" cx="3.6" cy="3.6" r="3.6" transform="translate(2114.808 1408.409)" fill="#111"/>
    </g>
    <rect id="사각형_1" data-name="사각형 1" width="11.979" height="3.716" transform="translate(2101.405 1383.448)" fill="#bba900"/>
  </g>
</svg>
