<svg id="Graphic_Elements" data-name="Graphic Elements" xmlns="http://www.w3.org/2000/svg" width="55" height="55" viewBox="0 0 55 55">
  <g id="그룹_44" data-name="그룹 44">
    <rect id="사각형_30" data-name="사각형 30" width="55" height="55" rx="21.42" fill="#8f9299"/>
    <g id="그룹_43" data-name="그룹 43">
      <path id="패스_88" data-name="패스 88" d="M27.5,14.53c4.22,0,4.72.02,6.39.09a9,9,0,0,1,2.94.54,4.938,4.938,0,0,1,1.82,1.18,4.815,4.815,0,0,1,1.18,1.82,8.737,8.737,0,0,1,.54,2.94c.08,1.67.09,2.17.09,6.39s-.02,4.72-.09,6.39a9,9,0,0,1-.54,2.94,4.938,4.938,0,0,1-1.18,1.82,4.815,4.815,0,0,1-1.82,1.18,8.737,8.737,0,0,1-2.94.54c-1.67.08-2.17.09-6.39.09s-4.72-.02-6.39-.09a9,9,0,0,1-2.94-.54,4.938,4.938,0,0,1-1.82-1.18,4.815,4.815,0,0,1-1.18-1.82,8.737,8.737,0,0,1-.54-2.94c-.08-1.67-.09-2.17-.09-6.39s.02-4.72.09-6.39a9,9,0,0,1,.54-2.94,4.938,4.938,0,0,1,1.18-1.82,4.815,4.815,0,0,1,1.82-1.18,8.737,8.737,0,0,1,2.94-.54c1.67-.08,2.17-.09,6.39-.09m0-2.85c-4.3,0-4.83.02-6.52.1a11.493,11.493,0,0,0-3.84.74,7.809,7.809,0,0,0-2.8,1.82,7.678,7.678,0,0,0-1.82,2.8,11.75,11.75,0,0,0-.74,3.84c-.08,1.69-.1,2.23-.1,6.52s.02,4.83.1,6.52a11.493,11.493,0,0,0,.74,3.84,7.809,7.809,0,0,0,1.82,2.8,7.678,7.678,0,0,0,2.8,1.82,11.75,11.75,0,0,0,3.84.74c1.69.08,2.23.1,6.52.1s4.83-.02,6.52-.1a11.493,11.493,0,0,0,3.84-.74,7.809,7.809,0,0,0,2.8-1.82,7.678,7.678,0,0,0,1.82-2.8,11.75,11.75,0,0,0,.74-3.84c.08-1.69.1-2.23.1-6.52s-.02-4.83-.1-6.52a11.493,11.493,0,0,0-.74-3.84,7.809,7.809,0,0,0-1.82-2.8,7.678,7.678,0,0,0-2.8-1.82,11.75,11.75,0,0,0-3.84-.74c-1.69-.08-2.23-.1-6.52-.1h0Z" fill="#fff"/>
      <path id="패스_89" data-name="패스 89" d="M27.5,19.38a8.12,8.12,0,1,0,8.12,8.12,8.119,8.119,0,0,0-8.12-8.12Zm0,13.4a5.27,5.27,0,1,1,5.27-5.27A5.271,5.271,0,0,1,27.5,32.78Z" fill="#fff"/>
      <circle id="타원_1" data-name="타원 1" cx="1.9" cy="1.9" r="1.9" transform="translate(34.04 17.16)" fill="#fff"/>
    </g>
  </g>
</svg>
