<svg width="30" height="30" viewBox="0 0 30 30" fill="none" xmlns="http://www.w3.org/2000/svg">
<path d="M15 3C7.26809 3 1 7.81803 1 13.7568C1 17.6237 3.65532 21.0149 7.64255 22.909C7.34894 23.9719 6.58298 26.7593 6.42979 27.3548C6.2383 28.0951 6.71064 28.0869 7.01702 27.8842C7.25957 27.727 10.8553 25.3532 12.4043 24.3275C13.2468 24.4475 14.1149 24.5136 15.0043 24.5136C22.7362 24.5136 29.0043 19.6956 29.0043 13.7568C29.0043 7.81803 22.7319 3 15 3Z" fill="#121212"/>
<path d="M5.0204 10.3284C4.16508 10.3284 4.16508 11.7841 5.0204 11.7841H6.47997C6.47997 11.7841 6.48848 15.7295 6.47997 16.6352C6.47997 17.2969 7.99912 17.33 7.99486 16.6683V11.9206C7.99486 11.9206 8.49274 11.8172 9.45444 11.8172C10.3608 11.8172 10.3608 10.3242 9.45444 10.3242H5.0204V10.3284Z" fill="#FAE100"/>
<path d="M12.1866 12.1479L12.9994 14.621H11.3058L12.1866 12.1479ZM11.276 10.9899C10.9143 11.7592 9.62068 15.3861 9.1909 16.3497C8.88026 17.0445 10.2207 17.6111 10.5356 16.9163L10.8249 15.9238H13.4973C13.4973 15.9238 13.4037 15.9651 13.7611 16.875C14.0462 17.6111 15.4334 17.1024 15.1483 16.3663C14.7398 15.3158 13.3186 11.5276 13.0632 10.9899C12.9441 10.7418 12.5143 10.564 12.1015 10.564C11.7569 10.564 11.4249 10.688 11.2845 10.9899" fill="#FAE100"/>
<path d="M15.7148 11.2093C15.7148 12.4417 15.7234 16.4161 15.7234 16.4161C15.7234 16.4161 15.6085 17.206 16.3021 17.206C16.9957 17.206 18.5446 17.1977 19.2297 17.1977C19.9148 17.1977 19.9106 15.7792 19.2297 15.7792C18.5489 15.7792 17.2936 15.7709 17.2936 15.7709C17.2936 15.7709 17.2978 12.0944 17.2936 11.2011C17.2936 10.7709 16.8978 10.5518 16.5063 10.5518C16.1148 10.5518 15.7148 10.7709 15.7148 11.2011" fill="#FAE100"/>
<path d="M20.1616 11.0147C20.1786 11.5565 20.1445 16.4449 20.1445 16.8088C20.1445 17.3795 21.6424 17.3795 21.6424 16.8088C21.6424 16.1471 21.6424 14.8857 21.6424 14.8857L22.0807 14.5425L24.0041 17.0942C24.3913 17.5946 25.6169 16.693 25.2254 16.1926L23.1828 13.5789C23.1828 13.5789 24.5701 12.1231 25.1147 11.5937C25.4339 11.2877 24.4467 10.32 24.1275 10.626C23.8169 10.9238 21.6467 13.0371 21.6467 13.0371C21.6467 13.0371 21.6679 11.7095 21.6467 10.9775C21.6381 10.7004 21.2892 10.564 20.9275 10.564C20.5445 10.564 20.1488 10.717 20.1573 11.0147" fill="#FAE100"/>
</svg>
