<svg width="36" height="36" viewBox="0 0 36 36" fill="none" xmlns="http://www.w3.org/2000/svg">
<path fill-rule="evenodd" clip-rule="evenodd" d="M7 13L7 8.31416C7 6.4823 8.45739 5 10.2585 5H25.7415C27.5426 5 29 6.4823 29 8.31416L29 13V14.2331H31.2333C32.2085 14.2331 33 14.9845 33 15.9104V28.3135H32.999V30.2492C32.999 30.6631 32.3239 31 31.4945 31C30.665 31 29.9899 30.6631 29.9899 30.2492V28.3135H6V30.2492C6 30.6631 5.32692 31 4.5 31C3.67308 31 3 30.6631 3 30.2492V28.3135V28.2954V15.9104C3 14.9845 3.79146 14.2331 4.76665 14.2331H7V13ZM17.5 23C19.0299 23 20.4364 22.4714 21.5468 21.5869L24.7772 24.1713C25.4241 24.6888 26.3681 24.5839 26.8856 23.937C27.4031 23.2901 27.2982 22.3462 26.6513 21.8287L23.4013 19.2286C23.7855 18.3989 24 17.4745 24 16.5C24 12.9101 21.0899 10 17.5 10C13.9101 10 11 12.9101 11 16.5C11 20.0899 13.9101 23 17.5 23ZM17.5 20C19.433 20 21 18.433 21 16.5C21 14.567 19.433 13 17.5 13C15.567 13 14 14.567 14 16.5C14 18.433 15.567 20 17.5 20Z" fill="white"/>
</svg>
