<svg xmlns="http://www.w3.org/2000/svg" width="66.918" height="49.944" viewBox="0 0 66.918 49.944">
  <g id="그룹_2" data-name="그룹 2" transform="translate(-2020.566 -1365.609)">
    <path id="패스_4" data-name="패스 4" d="M2052.576,1366.385a13.911,13.911,0,1,0,9.388,13.154A13.831,13.831,0,0,0,2052.576,1366.385Zm0,21.641a9.55,9.55,0,0,1-4.545,1.186,9.672,9.672,0,0,1,0-19.344,9.54,9.54,0,0,1,4.545,1.187,9.584,9.584,0,0,1,0,16.971Z" fill="#111"/>
    <path id="패스_5" data-name="패스 5" d="M2048.031,1398.545c-16.17,0-27.465,6.993-27.465,17.008h4.447c0-7.279,9.681-12.562,23.02-12.562a24.331,24.331,0,0,1,3.281.22v-4.454A26.952,26.952,0,0,0,2048.031,1398.545Z" fill="#111"/>
    <g id="그룹_6" data-name="그룹 6">
      <path id="패스_6" data-name="패스 6" d="M2057.594,1399.659h2.239l4.218,10.1,4.408-10.1h2.239l2.67,15.894h-3.145l-1.43-9.794-4.265,9.794h-1.049l-4.075-9.794-1.62,9.794h-3.145Z" fill="#bba900"/>
      <path id="패스_7" data-name="패스 7" d="M2078.787,1408.285l-5.457-8.626H2077l3.408,5.53,3.407-5.53h3.669l-5.6,8.626v7.268h-3.1Z" fill="#bba900"/>
    </g>
  </g>
</svg>
