<svg id="Graphic_Elements" data-name="Graphic Elements" xmlns="http://www.w3.org/2000/svg" width="55" height="55" viewBox="0 0 55 55">
  <g id="그룹_47" data-name="그룹 47">
    <rect id="사각형_32" data-name="사각형 32" width="55" height="55" rx="21.42" fill="#8f9299"/>
    <g id="그룹_46" data-name="그룹 46">
      <path id="패스_91" data-name="패스 91" d="M37.8,26.26a1.391,1.391,0,1,0,1.33,1.39A1.356,1.356,0,0,0,37.8,26.26Z" fill="#fff" fill-rule="evenodd"/>
      <path id="패스_92" data-name="패스 92" d="M29.62,26.27a1.4,1.4,0,1,0,1.33,1.4A1.365,1.365,0,0,0,29.62,26.27Z" fill="#fff" fill-rule="evenodd"/>
      <path id="패스_93" data-name="패스 93" d="M17.42,26.28a1.39,1.39,0,1,0,1.36,1.39A1.381,1.381,0,0,0,17.42,26.28Z" fill="#fff" fill-rule="evenodd"/>
      <path id="패스_94" data-name="패스 94" d="M44.89,33.44V20.36a5.505,5.505,0,0,0-5.49-5.52H15.59a5.505,5.505,0,0,0-5.49,5.52V33.44a5.5,5.5,0,0,0,5.49,5.52h8.24l2.76,4.49a.715.715,0,0,0,.09.13.945.945,0,0,0,.82.47.971.971,0,0,0,.82-.46.746.746,0,0,0,.1-.14l2.75-4.49h8.24a5.505,5.505,0,0,0,5.49-5.52h0ZM17.88,30.95a2.018,2.018,0,0,1-1.78-.93v.7H13.96v-9h2.12v3.43a2.791,2.791,0,0,1,1.8-.85c2.88,0,2.98,3.29,2.98,3.29a3.143,3.143,0,0,1-2.98,3.36Zm6.63-.38H22.45V25.45c0-1.76-.98-1.72-.98-1.72V21.72c3.11,0,3.02,3.25,3.03,3.25v5.6Zm8.61-2.91c0,3.31-3.5,3.32-3.5,3.32a3.2,3.2,0,0,1-3.42-3.32c0-3.36,3.42-3.36,3.42-3.36A3.249,3.249,0,0,1,33.12,27.66Zm7.94,2.97a3.075,3.075,0,0,1-3.04,3.39h-.81V32.1h.5c1.47,0,1.32-1.59,1.32-1.59v-.5a2.306,2.306,0,0,1-1.82.83c-2.89,0-2.86-3.21-2.86-3.21,0-3.45,2.94-3.32,2.94-3.32a2.221,2.221,0,0,1,1.74.83v-.6h2.02v6.11Z" fill="#fff" fill-rule="evenodd"/>
    </g>
  </g>
</svg>
