<svg xmlns="http://www.w3.org/2000/svg" width="54.7" height="49.944" viewBox="0 0 54.7 49.944">
  <g id="그룹_1" data-name="그룹 1" transform="translate(-1948.138 -1365.609)">
    <path id="패스_1" data-name="패스 1" d="M1980.148,1366.385a13.911,13.911,0,1,0,9.388,13.154A13.831,13.831,0,0,0,1980.148,1366.385Zm0,21.641a9.551,9.551,0,0,1-4.545,1.186,9.672,9.672,0,0,1,0-19.344,9.541,9.541,0,0,1,4.545,1.187,9.584,9.584,0,0,1,0,16.971Z" fill="#111"/>
    <path id="패스_2" data-name="패스 2" d="M1975.6,1398.545c-16.17,0-27.465,6.993-27.465,17.008h4.447c0-7.279,9.681-12.562,23.02-12.562a33.968,33.968,0,0,1,3.866.22v-4.454A37.609,37.609,0,0,0,1975.6,1398.545Z" fill="#111"/>
    <path id="패스_3" data-name="패스 3" d="M1991.711,1415.553V1408.6h-6.953v-4.174h6.953v-6.953h4.174v6.774l.231.179h6.722v4.174h-6.953v6.953Z" fill="#bba900"/>
  </g>
</svg>
