<svg id="Graphic_Elements" data-name="Graphic Elements" xmlns="http://www.w3.org/2000/svg" width="55" height="55" viewBox="0 0 55 55">
  <g id="그룹_45" data-name="그룹 45">
    <rect id="사각형_31" data-name="사각형 31" width="55" height="55" rx="21.42" fill="#8f9299"/>
    <path id="패스_90" data-name="패스 90" d="M44.16,19.13a4.348,4.348,0,0,0-3.07-3.07c-2.71-.73-13.58-.73-13.58-.73s-10.87,0-13.58.73a4.348,4.348,0,0,0-3.07,3.07,45.04,45.04,0,0,0-.73,8.37,45.04,45.04,0,0,0,.73,8.37,4.348,4.348,0,0,0,3.07,3.07c2.71.73,13.58.73,13.58.73s10.87,0,13.58-.73a4.348,4.348,0,0,0,3.07-3.07,45.04,45.04,0,0,0,.73-8.37,45.04,45.04,0,0,0-.73-8.37ZM24.03,32.71V22.28l9.03,5.22-9.03,5.21Z" fill="#fff"/>
  </g>
</svg>
